<?xml version="1.0" standalone="no"?>
<!DOCTYPE svg PUBLIC "-//W3C//DTD SVG 20010904//EN"
 "http://www.w3.org/TR/2001/REC-SVG-20010904/DTD/svg10.dtd">
<svg version="1.0" xmlns="http://www.w3.org/2000/svg"
 width="382.000000pt" height="382.000000pt" viewBox="0 0 382.000000 382.000000"
 preserveAspectRatio="xMidYMid meet">
<metadata>
Created by potrace 1.11, written by Peter Selinger 2001-2013
</metadata>
<g transform="translate(0.000000,382.000000) scale(0.100000,-0.100000)"
fill="#000000" stroke="none">
<path d="M2010 3280 c0 -5 5 -10 11 -10 5 0 7 5 4 10 -3 6 -8 10 -11 10 -2 0
-4 -4 -4 -10z"/>
<path d="M2250 3265 c0 -5 5 -17 10 -25 5 -8 10 -10 10 -5 0 6 -5 17 -10 25
-5 8 -10 11 -10 5z"/>
<path d="M2036 3238 c3 -5 10 -6 15 -3 13 9 11 12 -6 12 -8 0 -12 -4 -9 -9z"/>
<path d="M2556 3227 c3 -10 9 -15 12 -12 3 3 0 11 -7 18 -10 9 -11 8 -5 -6z"/>
<path d="M2156 3182 c-3 -5 1 -9 9 -9 8 0 12 4 9 9 -3 4 -7 8 -9 8 -2 0 -6 -4
-9 -8z"/>
<path d="M2370 3186 c0 -2 7 -7 16 -10 8 -3 12 -2 9 4 -6 10 -25 14 -25 6z"/>
<path d="M2290 3120 c0 -5 5 -10 11 -10 5 0 7 5 4 10 -3 6 -8 10 -11 10 -2 0
-4 -4 -4 -10z"/>
<path d="M2390 3126 c0 -2 7 -7 16 -10 8 -3 12 -2 9 4 -6 10 -25 14 -25 6z"/>
<path d="M2240 3111 c0 -6 4 -13 10 -16 6 -3 7 1 4 9 -7 18 -14 21 -14 7z"/>
<path d="M1106 3098 c3 -5 10 -6 15 -3 13 9 11 12 -6 12 -8 0 -12 -4 -9 -9z"/>
<path d="M2755 3080 c3 -5 8 -10 11 -10 2 0 4 5 4 10 0 6 -5 10 -11 10 -5 0
-7 -4 -4 -10z"/>
<path d="M2354 3066 c1 -8 5 -18 8 -22 4 -3 5 1 4 10 -1 8 -5 18 -8 22 -4 3
-5 -1 -4 -10z"/>
<path d="M2313 3055 c0 -8 4 -12 9 -9 5 3 6 10 3 15 -9 13 -12 11 -12 -6z"/>
<path d="M2470 3038 c0 -4 4 -8 9 -8 6 0 12 4 15 8 3 5 -1 9 -9 9 -8 0 -15 -4
-15 -9z"/>
<path d="M2515 3040 c3 -5 8 -10 11 -10 2 0 4 5 4 10 0 6 -5 10 -11 10 -5 0
-7 -4 -4 -10z"/>
<path d="M1195 3021 c-3 -5 -2 -12 3 -15 5 -3 9 1 9 9 0 17 -3 19 -12 6z"/>
<path d="M2327 3019 c7 -7 15 -10 18 -7 3 3 -2 9 -12 12 -14 6 -15 5 -6 -5z"/>
<path d="M2793 3003 c4 -3 1 -13 -6 -22 -11 -14 -10 -14 5 -2 16 12 16 31 1
31 -4 0 -3 -3 0 -7z"/>
<path d="M2150 2996 c0 -2 8 -10 18 -17 15 -13 16 -12 3 4 -13 16 -21 21 -21
13z"/>
<path d="M2196 2982 c-3 -5 1 -9 9 -9 8 0 12 4 9 9 -3 4 -7 8 -9 8 -2 0 -6 -4
-9 -8z"/>
<path d="M2133 2949 c-2 -23 3 -25 10 -4 4 8 3 16 -1 19 -4 3 -9 -4 -9 -15z"/>
<path d="M2295 2960 c-3 -5 -1 -10 4 -10 6 0 11 5 11 10 0 6 -2 10 -4 10 -3 0
-8 -4 -11 -10z"/>
<path d="M2786 2940 c5 -8 9 -18 9 -22 0 -3 3 -9 7 -13 3 -4 5 0 4 9 -1 9 -8
22 -16 29 -10 10 -11 9 -4 -3z"/>
<path d="M2455 2860 c1 -11 5 -23 9 -27 4 -5 6 -1 4 7 -1 8 3 14 10 13 18 -4
15 5 -6 16 -15 8 -18 6 -17 -9z"/>
<path d="M1356 2862 c-3 -5 1 -9 9 -9 8 0 12 4 9 9 -3 4 -7 8 -9 8 -2 0 -6 -4
-9 -8z"/>
<path d="M1390 2799 c0 -5 5 -7 10 -4 6 3 10 8 10 11 0 2 -4 4 -10 4 -5 0 -10
-5 -10 -11z"/>
<path d="M1833 2785 c0 -8 4 -12 9 -9 5 3 6 10 3 15 -9 13 -12 11 -12 -6z"/>
<path d="M1187 2699 c7 -7 15 -10 18 -7 3 3 -2 9 -12 12 -14 6 -15 5 -6 -5z"/>
<path d="M1415 2609 c-4 -6 -5 -12 -2 -15 2 -3 7 2 10 11 7 17 1 20 -8 4z"/>
<path d="M910 2539 c0 -5 5 -7 10 -4 6 3 10 8 10 11 0 2 -4 4 -10 4 -5 0 -10
-5 -10 -11z"/>
<path d="M139 2421 c-20 -20 -29 -39 -29 -61 0 -22 9 -41 29 -61 l29 -29 319
0 c796 -2 794 -2 828 22 25 16 32 29 34 60 1 31 -4 44 -28 68 l-29 30 -562 0
-562 0 -29 -29z"/>
<path d="M3050 2320 c0 -5 5 -10 11 -10 5 0 7 5 4 10 -3 6 -8 10 -11 10 -2 0
-4 -4 -4 -10z"/>
<path d="M3010 2299 c0 -5 5 -7 10 -4 6 3 10 8 10 11 0 2 -4 4 -10 4 -5 0 -10
-5 -10 -11z"/>
<path d="M540 2250 c-279 -4 -350 -8 -372 -20 -50 -27 -58 -68 -58 -302 0
-194 2 -213 20 -243 43 -70 -96 -65 1777 -65 1419 0 1696 2 1738 14 28 8 47
15 43 15 -4 1 -1 20 7 42 11 31 15 93 15 248 0 234 -7 262 -71 294 -33 16
-123 17 -1395 20 -747 1 -1514 0 -1704 -3z"/>
<path d="M2952 1600 l-434 -5 -25 -29 c-19 -23 -24 -38 -21 -68 2 -21 0 -40
-4 -42 -5 -3 -3 -3 4 -2 7 2 21 -3 30 -12 28 -24 123 -27 656 -22 l504 5 24
28 c31 36 31 78 0 114 -24 28 -26 28 -163 33 -76 3 -333 3 -571 0z"/>
<path d="M2405 1580 c-3 -5 -1 -10 4 -10 6 0 11 5 11 10 0 6 -2 10 -4 10 -3 0
-8 -4 -11 -10z"/>
<path d="M2336 1518 c3 -5 10 -6 15 -3 13 9 11 12 -6 12 -8 0 -12 -4 -9 -9z"/>
<path d="M510 1502 c0 -4 11 -8 25 -8 28 0 24 8 -5 13 -11 2 -20 -1 -20 -5z"/>
<path d="M573 1493 c0 -9 4 -10 14 -2 7 6 13 12 13 14 0 1 -6 2 -13 2 -8 0
-14 -6 -14 -14z"/>
<path d="M505 1460 c10 -11 20 -20 23 -20 3 0 -3 9 -13 20 -10 11 -20 20 -23
20 -3 0 3 -9 13 -20z"/>
<path d="M715 1471 c-6 -11 13 -26 22 -17 4 3 1 6 -6 6 -7 0 -9 5 -6 10 3 6 4
10 1 10 -3 0 -7 -4 -11 -9z"/>
<path d="M554 1434 c1 -8 4 -15 7 -16 2 -2 3 -1 2 1 -2 2 2 9 7 16 7 8 5 12
-4 12 -8 0 -13 -6 -12 -13z"/>
<path d="M2214 1438 c-4 -7 -4 -10 1 -6 4 4 15 2 24 -5 14 -11 14 -10 2 6 -16
20 -18 21 -27 5z"/>
<path d="M713 1425 c0 -8 4 -12 9 -9 5 3 6 10 3 15 -9 13 -12 11 -12 -6z"/>
<path d="M510 1426 c0 -2 7 -7 16 -10 8 -3 12 -2 9 4 -6 10 -25 14 -25 6z"/>
<path d="M2330 1420 c0 -5 5 -10 10 -10 6 0 10 5 10 10 0 6 -4 10 -10 10 -5 0
-10 -4 -10 -10z"/>
<path d="M720 1395 c-7 -9 -11 -17 -9 -20 3 -2 10 5 17 15 14 24 10 26 -8 5z"/>
<path d="M2230 1400 c0 -5 5 -10 11 -10 5 0 7 5 4 10 -3 6 -8 10 -11 10 -2 0
-4 -4 -4 -10z"/>
<path d="M2787 1399 c7 -7 15 -10 18 -7 3 3 -2 9 -12 12 -14 6 -15 5 -6 -5z"/>
<path d="M2100 1360 c-9 -6 -10 -10 -3 -10 6 0 15 5 18 10 8 12 4 12 -15 0z"/>
<path d="M2790 1360 c0 -5 5 -10 11 -10 5 0 7 5 4 10 -3 6 -8 10 -11 10 -2 0
-4 -4 -4 -10z"/>
<path d="M2464 1322 c4 -7 2 -21 -5 -30 -12 -15 -11 -15 6 0 16 15 17 20 6 30
-11 11 -13 10 -7 0z"/>
<path d="M706 1302 c-2 -4 4 -8 14 -8 10 0 16 4 14 8 -3 4 -9 8 -14 8 -5 0
-11 -4 -14 -8z"/>
<path d="M2785 1300 c-3 -6 1 -7 9 -4 18 7 21 14 7 14 -6 0 -13 -4 -16 -10z"/>
<path d="M1375 1280 c3 -5 8 -10 11 -10 2 0 4 5 4 10 0 6 -5 10 -11 10 -5 0
-7 -4 -4 -10z"/>
<path d="M690 1259 c0 -5 5 -7 10 -4 6 3 10 8 10 11 0 2 -4 4 -10 4 -5 0 -10
-5 -10 -11z"/>
<path d="M2460 1259 c0 -5 5 -7 10 -4 6 3 10 8 10 11 0 2 -4 4 -10 4 -5 0 -10
-5 -10 -11z"/>
<path d="M1370 1220 c0 -5 5 -10 11 -10 5 0 7 5 4 10 -3 6 -8 10 -11 10 -2 0
-4 -4 -4 -10z"/>
<path d="M1307 1119 c7 -7 15 -10 18 -7 3 3 -2 9 -12 12 -14 6 -15 5 -6 -5z"/>
<path d="M1100 1106 c0 -2 8 -10 18 -17 15 -13 16 -12 3 4 -13 16 -21 21 -21
13z"/>
<path d="M915 789 c-4 -6 -5 -12 -2 -15 2 -3 7 2 10 11 7 17 1 20 -8 4z"/>
<path d="M1790 780 c-9 -6 -10 -10 -3 -10 6 0 15 5 18 10 8 12 4 12 -15 0z"/>
<path d="M1716 727 c3 -10 9 -15 12 -12 3 3 0 11 -7 18 -10 9 -11 8 -5 -6z"/>
<path d="M1473 665 c0 -8 4 -12 9 -9 5 3 6 10 3 15 -9 13 -12 11 -12 -6z"/>
<path d="M1495 629 c-4 -6 -5 -12 -2 -15 2 -3 7 2 10 11 7 17 1 20 -8 4z"/>
<path d="M1450 616 c7 -7 13 -7 20 0 6 6 3 10 -10 10 -13 0 -16 -4 -10 -10z"/>
<path d="M1835 451 c-3 -5 -2 -12 3 -15 5 -3 9 1 9 9 0 17 -3 19 -12 6z"/>
</g>
</svg>
